<!-- src/assets/logo.svg -->
<svg
    version="1.1"
    id="Layer_1"
    xmlns="http://www.w3.org/2000/svg"
    xmlns:xlink="http://www.w3.org/1999/xlink"
    viewBox="0 0 64 64"
    enable-background="new 0 0 64 64"
    xml:space="preserve"
    width="64px"
    height="64px"
    fill="#61dafb"
>
    <g>
        <circle fill="#61dafb" cx="32" cy="32" r="31"></circle>
        <path
            fill="#FFFFFF"
            d="M46,18c-2.2,0-4,1.8-4,4c0,0.3,0,0.5,0.1,0.8L35.8,29L30.5,28l0.2-5.9L35.9,20 c0.2,0,0.3,0,0.5,0c2.2,0,4-1.8,4-4s-1.8-4-4-4s-4,1.8-4,4c0,0.3,0,0.5,0.1,0.8l-5.2,2.9L23.5,20l0.1-5.8c0.2,0,0.3,0,0.5,0 c2.2,0,4-1.8,4-4s-1.8-4-4-4s-4,1.8-4,4c0,0.3,0,0.5,0.1,0.8l-3.8,2.1L20,18.8c0,0,0,0,0,0l-3.9,2.2C16,21,15.8,21,15.5,21 c-2.2,0-4,1.8-4,4c0,1.6,0.9,3,2.3,3.7l-0.2,8.5c-0.9,0.2-1.7,0.5-2.4,1.1c-2.1,1.8-2.3,5-0.5,7.1c0.5,0.6,1.2,1,1.9,1.2l-0.4,7.3 c-0.1,1.3,0.3,2.7,1.2,3.7c0.9,1,2.1,1.5,3.4,1.5c0.1,0,0.2,0,0.3,0c2.7-0.1,4.8-2.4,4.7-5.1L21.9,49l0.5-9.2l6-0.1l0.5,9.2 c-0.1,2.7,2,5,4.7,5.1c1.3,0.1,2.5-0.4,3.4-1.5c0.9-1,1.3-2.3,1.2-3.7l-0.4-7.3c0.8-0.2,1.4-0.6,1.9-1.2c1.8-2.1,1.6-5.3-0.5-7.1 c-0.7-0.6-1.6-0.9-2.4-1.1l-0.2-8.5c1.3-0.6,2.3-2.1,2.3-3.7c0-0.3,0-0.5-0.1-0.8l3.8-2.1L46,22.8c0,0,0,0,0,0l3.9-2.2 c0.3,0,0.5,0,0.8,0c2.2,0,4-1.8,4-4S52.2,18,50,18z"
        ></path>
    </g>
</svg>
